<svg xmlns="http://www.w3.org/2000/svg" fill="#fff" height="40" viewBox="0 -960 960 960" width="40"><path d="M479.761-133.667q-71.094 0-134.476-27.074-63.383-27.075-110.759-74.285-47.377-47.21-74.118-110.425-26.741-63.216-26.741-134.976 0-71.906 26.741-134.993 26.741-63.087 74.118-110.045 47.376-46.958 110.759-73.913 63.382-26.955 134.476-26.955 71.906 0 134.993 26.962 63.087 26.963 110.545 73.933 47.458 46.971 74.246 110.075 26.788 63.105 26.788 134.696 0 72-26.788 135.216-26.788 63.215-74.246 110.425-47.458 47.21-110.545 74.285-63.087 27.074-134.993 27.074Zm.239-21q40.609-46.789 64.888-94.311 24.279-47.522 40.779-107.855h-210.5Q391.333-292 416.112-245.311q24.779 46.688 63.888 90.644Zm-30-2.499q-32.5-34-59.417-88.501-26.916-54.5-39.675-111.166H180.166q37.667 86.333 107.917 137.916 70.25 51.584 161.917 61.751Zm60.667 0q87.833-8 159.5-61.334 71.666-53.333 110.5-138.333H609.925q-18.258 58.333-45.008 112.166-26.75 53.834-54.25 87.501ZM173-380h173q-5-27.333-7-52.75t-2-47.917q0-22.5 2-47.583t7-51.75H173q-8.167 22.167-12.167 48.004-4 25.838-4 51.329 0 26.159 4 51.996 4 25.838 12.167 48.671Zm196.667 0h221.5q4.166-28 6.416-51.921t2.25-48.746q0-24.158-2.25-47.745Q595.333-552 591.167-580h-221.5q-5 28-7.25 51.588-2.25 23.587-2.25 47.745 0 24.825 2.25 48.746 2.25 23.921 7.25 51.921ZM614-380h173.833q7.334-22.833 11.334-48.671 4-25.837 4-51.996 0-25.491-4-51.329-4-25.837-11.334-48.004H614.667Q619-551.333 621-526.583t2 45.916q0 22.5-2 47.584Q619-408 614-380Zm-4.075-223.167h170.742Q742-690.333 672.833-742.083 603.667-793.834 510-803.833q32.5 38.999 58.833 91.666 26.334 52.667 41.092 109Zm-234.758 0h211.166q-17-61.333-43.112-111.605-26.112-50.272-63.221-90.561-36.109 38.622-61.721 87.394-25.612 48.772-43.112 114.772Zm-195.001 0h170.742q14.259-56.333 40.259-108.5 26-52.166 58.166-92.167-93.5 11.167-162.583 62.084-69.084 50.917-106.584 138.583Z"/></svg>