<svg xmlns="http://www.w3.org/2000/svg" fill="#fff" height="40" viewBox="0 -960 960 960" width="40"><path d="m480-161.667-31.833-95.45H225.333q-26.979 0-45.323-18.334-18.343-18.334-18.343-45.299v-413.618q0-26.965 18.343-45.465 18.344-18.5 45.323-18.5h191l27.855 95.716h290.479q27.854 0 45.76 17.822t17.906 45.545v413.618q0 26.965-17.868 45.465-17.869 18.5-45.665 18.5H480ZM326.112-397.833q55.261 0 90.158-35.332 34.897-35.331 34.897-91.668 0-9.357.008-13.929.008-4.571-1.604-7.905H322.833v48.334h72q-6.333 22.799-24.147 35.483-17.814 12.683-43.798 12.683-30.401 0-53.061-22.775-22.66-22.776-22.66-54.808t22.384-54.808q22.384-22.775 52.982-22.775 14.788 0 27.098 5 12.309 5 23.402 15.5l38.3-36.637q-16.01-16.718-39.92-26.874-23.91-10.156-49.816-10.156-53.424 0-91.261 38.465-37.836 38.466-37.836 91.868 0 54.5 38.309 92.417t91.303 37.917ZM538.937-381.5 557-398.833q-10.648-13.62-20.829-25.762-10.181-12.141-18.338-26.572l21.104 69.667Zm39.693-40.833q21.997-27.135 34.328-50.901Q625.29-497 628.667-509.833H502.333l9.206 33.582h30.965q6.116 12.33 14.752 25.487 8.635 13.157 21.374 28.431ZM511.833-193.5h222.834q14.6 0 23.216-9.154 8.617-9.154 8.617-22.685v-413.246q0-14.582-8.602-23.498Q749.296-671 734.719-671H454.167l37.831 129.333h62.433v-33.5h32.402v33.51h116v31.824h-40.128q-7.872 30.166-23.872 58.767-16 28.6-37.5 53.435l87 85.217L665-289l-86.5-86-28.714 29.311 25.635 88.435-63.588 63.754Z"/></svg>